<svg width="177" height="35" viewBox="0 0 177 35" fill="none" xmlns="http://www.w3.org/2000/svg">
<path d="M7.72668 27H2.3092L2.34338 23.001H7.72668C9.07109 23.001 10.2047 22.6991 11.1276 22.0952C12.0504 21.48 12.7454 20.5856 13.2125 19.4121C13.691 18.2386 13.9303 16.8201 13.9303 15.1567V13.9434C13.9303 12.6673 13.7936 11.5451 13.5201 10.5767C13.2581 9.60824 12.865 8.79362 12.3409 8.13281C11.8169 7.47201 11.1731 6.9764 10.4098 6.646C9.64644 6.3042 8.76917 6.1333 7.77795 6.1333H2.20667V2.11719H7.77795C9.44137 2.11719 10.9624 2.40202 12.3409 2.97168C13.7309 3.52995 14.9329 4.33317 15.9469 5.38135C16.9609 6.42952 17.7413 7.68278 18.2882 9.14111C18.8465 10.5881 19.1256 12.2002 19.1256 13.9775V15.1567C19.1256 16.9227 18.8465 18.5348 18.2882 19.9932C17.7413 21.4515 16.9609 22.7048 15.9469 23.7529C14.9443 24.7897 13.7423 25.5929 12.3409 26.1626C10.951 26.7209 9.41288 27 7.72668 27ZM5.21448 2.11719V27H0.0875244V2.11719H5.21448ZM31.0543 27.3418C29.6188 27.3418 28.3313 27.1139 27.192 26.6582C26.0527 26.1911 25.0843 25.5474 24.2867 24.7271C23.5006 23.9067 22.8968 22.9554 22.4752 21.873C22.0537 20.7793 21.8429 19.6172 21.8429 18.3867V17.7031C21.8429 16.3018 22.0423 15.02 22.441 13.8579C22.8398 12.6958 23.4095 11.6875 24.15 10.833C24.902 9.97852 25.8134 9.3234 26.8844 8.86768C27.9554 8.40055 29.163 8.16699 30.5074 8.16699C31.8177 8.16699 32.9798 8.38346 33.9938 8.81641C35.0078 9.24935 35.8566 9.86458 36.5402 10.6621C37.2351 11.4596 37.7592 12.4167 38.1124 13.5332C38.4656 14.6383 38.6422 15.8688 38.6422 17.2246V19.2754H23.9449V15.9941H33.8058V15.6182C33.8058 14.9346 33.6805 14.325 33.4298 13.7896C33.1906 13.2427 32.826 12.8097 32.3361 12.4907C31.8462 12.1717 31.2195 12.0122 30.4562 12.0122C29.8068 12.0122 29.2485 12.1546 28.7814 12.4395C28.3142 12.7243 27.9326 13.123 27.6364 13.6357C27.3515 14.1484 27.1351 14.7523 26.9869 15.4473C26.8502 16.1309 26.7819 16.8828 26.7819 17.7031V18.3867C26.7819 19.1273 26.8844 19.8109 27.0895 20.4375C27.3059 21.0641 27.6079 21.6053 27.9952 22.061C28.394 22.5168 28.8725 22.87 29.4308 23.1206C30.0004 23.3713 30.6442 23.4966 31.3619 23.4966C32.2506 23.4966 33.0766 23.3257 33.84 22.9839C34.6147 22.6307 35.2812 22.1009 35.8395 21.3945L38.2321 23.9922C37.8447 24.5505 37.3149 25.0859 36.6427 25.5986C35.9819 26.1113 35.1844 26.5329 34.2501 26.8633C33.3159 27.1823 32.2506 27.3418 31.0543 27.3418ZM47.4948 23.4111L51.5963 8.50879H56.7404L50.5026 27H47.3922L47.4948 23.4111ZM44.6749 8.50879L48.7936 23.4282L48.879 27H45.7516L39.5138 8.50879H44.6749ZM68.9938 16.0796H62.6022L62.568 12.5591H67.9342C68.8798 12.5591 69.6546 12.4395 70.2584 12.2002C70.8623 11.9495 71.3123 11.5907 71.6085 11.1235C71.9161 10.645 72.0699 10.064 72.0699 9.38037C72.0699 8.60563 71.9218 7.979 71.6256 7.50049C71.3408 7.02197 70.8907 6.67448 70.2755 6.45801C69.6717 6.24154 68.8912 6.1333 67.9342 6.1333H64.3795V27H59.2526V2.11719H67.9342C69.3811 2.11719 70.6743 2.25391 71.8136 2.52734C72.9643 2.80078 73.9384 3.21663 74.736 3.7749C75.5335 4.33317 76.143 5.03955 76.5646 5.89404C76.9861 6.73714 77.1969 7.73975 77.1969 8.90186C77.1969 9.92725 76.9633 10.8729 76.4962 11.7388C76.0405 12.6047 75.317 13.311 74.3258 13.8579C73.346 14.4048 72.0642 14.7067 70.4806 14.7637L68.9938 16.0796ZM68.7716 27H61.2008L63.2003 23.001H68.7716C69.6717 23.001 70.4065 22.8586 70.9762 22.5737C71.5459 22.2775 71.9674 21.8787 72.2408 21.3774C72.5143 20.8761 72.651 20.3008 72.651 19.6514C72.651 18.9222 72.5257 18.2899 72.275 17.7544C72.0358 17.2189 71.6484 16.8088 71.1129 16.5239C70.5774 16.2277 69.8711 16.0796 68.9938 16.0796H64.0548L64.089 12.5591H70.2413L71.4205 13.9434C72.9358 13.9206 74.1549 14.1883 75.0778 14.7466C76.012 15.2935 76.6899 16.0055 77.1115 16.8828C77.5444 17.7601 77.7609 18.7 77.7609 19.7026C77.7609 21.2977 77.4134 22.6421 76.7184 23.7358C76.0234 24.8182 75.0037 25.6328 73.6593 26.1797C72.3263 26.7266 70.6971 27 68.7716 27ZM86.2203 12.542V27H81.2985V8.50879H85.9298L86.2203 12.542ZM91.7916 8.38916L91.7062 12.9521C91.4669 12.918 91.1764 12.8895 90.8346 12.8667C90.5042 12.8325 90.2023 12.8154 89.9288 12.8154C89.2338 12.8154 88.63 12.9066 88.1173 13.0889C87.616 13.2598 87.1945 13.5161 86.8527 13.8579C86.5223 14.1997 86.2716 14.6156 86.1007 15.1055C85.9412 15.5954 85.8501 16.1536 85.8273 16.7803L84.8361 16.4727C84.8361 15.2764 84.9557 14.1769 85.1949 13.1743C85.4342 12.1603 85.7817 11.2773 86.2374 10.5254C86.7045 9.77344 87.2742 9.19238 87.9464 8.78223C88.6186 8.37207 89.3877 8.16699 90.2535 8.16699C90.527 8.16699 90.8061 8.18978 91.0909 8.23535C91.3758 8.26953 91.6093 8.3208 91.7916 8.38916ZM99.3112 8.50879V27H94.3722V8.50879H99.3112ZM94.0646 3.68945C94.0646 2.97168 94.3152 2.37923 94.8165 1.91211C95.3178 1.44499 95.99 1.21143 96.8331 1.21143C97.6648 1.21143 98.3313 1.44499 98.8326 1.91211C99.3453 2.37923 99.6017 2.97168 99.6017 3.68945C99.6017 4.40723 99.3453 4.99967 98.8326 5.4668C98.3313 5.93392 97.6648 6.16748 96.8331 6.16748C95.99 6.16748 95.3178 5.93392 94.8165 5.4668C94.3152 4.99967 94.0646 4.40723 94.0646 3.68945ZM114.299 22.9668V0.75H119.255V27H114.795L114.299 22.9668ZM102.609 17.9766V17.6177C102.609 16.2049 102.769 14.9232 103.088 13.7725C103.407 12.6104 103.874 11.6134 104.489 10.7817C105.105 9.95003 105.862 9.30632 106.762 8.85059C107.662 8.39486 108.688 8.16699 109.839 8.16699C110.921 8.16699 111.866 8.39486 112.675 8.85059C113.496 9.30632 114.191 9.95573 114.76 10.7988C115.341 11.6305 115.809 12.616 116.162 13.7554C116.515 14.8833 116.771 16.1195 116.931 17.4639V18.25C116.771 19.5374 116.515 20.7337 116.162 21.8389C115.809 22.944 115.341 23.9124 114.76 24.7441C114.191 25.5645 113.496 26.2025 112.675 26.6582C111.855 27.1139 110.898 27.3418 109.804 27.3418C108.654 27.3418 107.628 27.1082 106.728 26.6411C105.839 26.174 105.088 25.5189 104.472 24.6758C103.868 23.8327 103.407 22.8415 103.088 21.7021C102.769 20.5628 102.609 19.321 102.609 17.9766ZM107.531 17.6177V17.9766C107.531 18.7399 107.588 19.452 107.702 20.1128C107.828 20.7736 108.027 21.3604 108.3 21.873C108.585 22.3743 108.95 22.7674 109.394 23.0522C109.85 23.3257 110.402 23.4624 111.052 23.4624C111.895 23.4624 112.59 23.2744 113.137 22.8984C113.684 22.5111 114.1 21.9813 114.384 21.3091C114.681 20.6369 114.852 19.8621 114.897 18.9849V16.7461C114.863 16.0283 114.76 15.3846 114.589 14.8149C114.43 14.2339 114.191 13.7383 113.872 13.3281C113.564 12.918 113.177 12.599 112.71 12.3711C112.254 12.1432 111.713 12.0293 111.086 12.0293C110.448 12.0293 109.901 12.1774 109.445 12.4736C108.99 12.7585 108.619 13.1515 108.335 13.6528C108.061 14.1541 107.856 14.7466 107.719 15.4302C107.594 16.1024 107.531 16.8315 107.531 17.6177ZM134.807 8.50879H139.267V26.3848C139.267 28.071 138.891 29.5008 138.139 30.6743C137.399 31.8592 136.362 32.7536 135.029 33.3574C133.696 33.9727 132.146 34.2803 130.38 34.2803C129.606 34.2803 128.785 34.1777 127.92 33.9727C127.065 33.7676 126.245 33.4486 125.459 33.0156C124.684 32.5827 124.034 32.0358 123.51 31.375L125.681 28.4697C126.25 29.1305 126.911 29.6432 127.663 30.0078C128.415 30.3838 129.247 30.5718 130.158 30.5718C131.047 30.5718 131.799 30.4066 132.414 30.0762C133.029 29.7572 133.502 29.2843 133.833 28.6577C134.163 28.0425 134.328 27.2962 134.328 26.4189V12.7812L134.807 8.50879ZM122.365 17.9766V17.6177C122.365 16.2049 122.536 14.9232 122.878 13.7725C123.231 12.6104 123.727 11.6134 124.365 10.7817C125.014 9.95003 125.8 9.30632 126.723 8.85059C127.646 8.39486 128.689 8.16699 129.851 8.16699C131.081 8.16699 132.112 8.39486 132.944 8.85059C133.776 9.30632 134.459 9.95573 134.995 10.7988C135.53 11.6305 135.946 12.616 136.242 13.7554C136.55 14.8833 136.789 16.1195 136.96 17.4639V18.25C136.789 19.5374 136.533 20.7337 136.191 21.8389C135.849 22.944 135.399 23.9124 134.841 24.7441C134.283 25.5645 133.588 26.2025 132.756 26.6582C131.936 27.1139 130.956 27.3418 129.817 27.3418C128.677 27.3418 127.646 27.1082 126.723 26.6411C125.812 26.174 125.031 25.5189 124.382 24.6758C123.733 23.8327 123.231 22.8415 122.878 21.7021C122.536 20.5628 122.365 19.321 122.365 17.9766ZM127.287 17.6177V17.9766C127.287 18.7399 127.361 19.452 127.509 20.1128C127.658 20.7736 127.885 21.3604 128.193 21.873C128.512 22.3743 128.905 22.7674 129.372 23.0522C129.851 23.3257 130.415 23.4624 131.064 23.4624C131.964 23.4624 132.699 23.2744 133.269 22.8984C133.838 22.5111 134.266 21.9813 134.55 21.3091C134.835 20.6369 135 19.8621 135.046 18.9849V16.7461C135.023 16.0283 134.926 15.3846 134.755 14.8149C134.585 14.2339 134.345 13.7383 134.038 13.3281C133.73 12.918 133.331 12.599 132.841 12.3711C132.352 12.1432 131.77 12.0293 131.098 12.0293C130.449 12.0293 129.885 12.1774 129.406 12.4736C128.939 12.7585 128.546 13.1515 128.227 13.6528C127.92 14.1541 127.686 14.7466 127.526 15.4302C127.367 16.1024 127.287 16.8315 127.287 17.6177ZM151.606 27.3418C150.171 27.3418 148.883 27.1139 147.744 26.6582C146.604 26.1911 145.636 25.5474 144.839 24.7271C144.052 23.9067 143.449 22.9554 143.027 21.873C142.605 20.7793 142.395 19.6172 142.395 18.3867V17.7031C142.395 16.3018 142.594 15.02 142.993 13.8579C143.392 12.6958 143.961 11.6875 144.702 10.833C145.454 9.97852 146.365 9.3234 147.436 8.86768C148.507 8.40055 149.715 8.16699 151.059 8.16699C152.369 8.16699 153.532 8.38346 154.546 8.81641C155.56 9.24935 156.408 9.86458 157.092 10.6621C157.787 11.4596 158.311 12.4167 158.664 13.5332C159.017 14.6383 159.194 15.8688 159.194 17.2246V19.2754H144.497V15.9941H154.358V15.6182C154.358 14.9346 154.232 14.325 153.982 13.7896C153.742 13.2427 153.378 12.8097 152.888 12.4907C152.398 12.1717 151.771 12.0122 151.008 12.0122C150.359 12.0122 149.8 12.1546 149.333 12.4395C148.866 12.7243 148.484 13.123 148.188 13.6357C147.903 14.1484 147.687 14.7523 147.539 15.4473C147.402 16.1309 147.334 16.8828 147.334 17.7031V18.3867C147.334 19.1273 147.436 19.8109 147.641 20.4375C147.858 21.0641 148.16 21.6053 148.547 22.061C148.946 22.5168 149.424 22.87 149.983 23.1206C150.552 23.3713 151.196 23.4966 151.914 23.4966C152.802 23.4966 153.628 23.3257 154.392 22.9839C155.166 22.6307 155.833 22.1009 156.391 21.3945L158.784 23.9922C158.396 24.5505 157.867 25.0859 157.194 25.5986C156.534 26.1113 155.736 26.5329 154.802 26.8633C153.868 27.1823 152.802 27.3418 151.606 27.3418Z" fill="black" fill-opacity="0.8"/>
<path d="M170.952 24.6245C170.952 23.8953 171.202 23.2858 171.704 22.7959C172.216 22.306 172.894 22.061 173.737 22.061C174.581 22.061 175.253 22.306 175.754 22.7959C176.267 23.2858 176.523 23.8953 176.523 24.6245C176.523 25.3537 176.267 25.9632 175.754 26.4531C175.253 26.943 174.581 27.188 173.737 27.188C172.894 27.188 172.216 26.943 171.704 26.4531C171.202 25.9632 170.952 25.3537 170.952 24.6245Z" fill="#F98600" fill-opacity="0.8"/>
</svg>
