<svg width="134" height="181" viewBox="0 0 134 181" fill="none" xmlns="http://www.w3.org/2000/svg">
<path d="M93.8979 132.167V113.943C94.136 110.916 93.7271 107.871 92.6978 105.014C91.6685 102.157 90.0429 99.5505 87.9291 97.37C107.868 95.1476 128.822 87.5912 128.822 52.921C128.82 44.0555 125.41 35.53 119.297 29.1091C122.192 21.3528 121.987 12.7795 118.726 5.17013C118.726 5.17013 111.233 2.94768 93.8979 14.5679C79.3441 10.6235 64.0028 10.6235 49.4489 14.5679C32.1138 2.94768 24.621 5.17013 24.621 5.17013C21.3595 12.7795 21.1549 21.3528 24.0495 29.1091C17.8909 35.5777 14.4772 44.1802 14.5247 53.1115C14.5247 87.5277 35.4792 95.0841 55.4177 97.5605C53.3286 99.7194 51.7175 102.294 50.689 105.116C49.6607 107.939 49.2381 110.947 49.4489 113.943V132.167" stroke="black" stroke-width="9.52477" stroke-linecap="round" stroke-linejoin="round"/>
<path d="M49.4489 119.467C30.3994 125.647 14.5248 119.467 5 100.417" stroke="black" stroke-width="9.52477" stroke-linecap="round" stroke-linejoin="round"/>
<path d="M29.583 147.117V172H24.4561V147.117H29.583ZM39.4951 157.747V161.746H28.1816V157.747H39.4951ZM40.6914 147.117V151.133H28.1816V147.117H40.6914ZM48.5527 153.509V172H43.6138V153.509H48.5527ZM43.3062 148.689C43.3062 147.972 43.5568 147.379 44.0581 146.912C44.5594 146.445 45.2316 146.211 46.0747 146.211C46.9064 146.211 47.5729 146.445 48.0742 146.912C48.5869 147.379 48.8433 147.972 48.8433 148.689C48.8433 149.407 48.5869 150 48.0742 150.467C47.5729 150.934 46.9064 151.167 46.0747 151.167C45.2316 151.167 44.5594 150.934 44.0581 150.467C43.5568 150 43.3062 149.407 43.3062 148.689ZM57.4395 157.457V172H52.5176V153.509H57.1318L57.4395 157.457ZM56.7217 162.105H55.3887C55.3887 160.738 55.5653 159.507 55.9185 158.414C56.2716 157.308 56.7673 156.368 57.4053 155.594C58.0433 154.808 58.8009 154.209 59.6782 153.799C60.5669 153.378 61.5581 153.167 62.6519 153.167C63.5177 153.167 64.3096 153.292 65.0273 153.543C65.7451 153.794 66.3604 154.192 66.873 154.739C67.3971 155.286 67.7959 156.01 68.0693 156.91C68.3542 157.81 68.4966 158.909 68.4966 160.208V172H63.5405V160.191C63.5405 159.371 63.4266 158.733 63.1987 158.277C62.9709 157.821 62.6348 157.502 62.1904 157.32C61.7575 157.126 61.222 157.029 60.584 157.029C59.9232 157.029 59.3478 157.16 58.8579 157.422C58.3794 157.684 57.9806 158.049 57.6616 158.516C57.354 158.972 57.1204 159.507 56.9609 160.123C56.8014 160.738 56.7217 161.399 56.7217 162.105ZM83.1597 167.967V145.75H88.1157V172H83.6553L83.1597 167.967ZM71.4702 162.977V162.618C71.4702 161.205 71.6297 159.923 71.9487 158.772C72.2677 157.61 72.7349 156.613 73.3501 155.782C73.9653 154.95 74.723 154.306 75.623 153.851C76.5231 153.395 77.5485 153.167 78.6992 153.167C79.7816 153.167 80.7272 153.395 81.5361 153.851C82.3564 154.306 83.0514 154.956 83.6211 155.799C84.2021 156.631 84.6693 157.616 85.0225 158.755C85.3757 159.883 85.632 161.119 85.7915 162.464V163.25C85.632 164.537 85.3757 165.734 85.0225 166.839C84.6693 167.944 84.2021 168.912 83.6211 169.744C83.0514 170.564 82.3564 171.202 81.5361 171.658C80.7158 172.114 79.7588 172.342 78.665 172.342C77.5143 172.342 76.4889 172.108 75.5889 171.641C74.7002 171.174 73.9482 170.519 73.333 169.676C72.7292 168.833 72.2677 167.841 71.9487 166.702C71.6297 165.563 71.4702 164.321 71.4702 162.977ZM76.3921 162.618V162.977C76.3921 163.74 76.4491 164.452 76.563 165.113C76.6883 165.774 76.8877 166.36 77.1611 166.873C77.446 167.374 77.8105 167.767 78.2549 168.052C78.7106 168.326 79.2632 168.462 79.9126 168.462C80.7557 168.462 81.4507 168.274 81.9976 167.898C82.5444 167.511 82.9603 166.981 83.2451 166.309C83.5413 165.637 83.7122 164.862 83.7578 163.985V161.746C83.7236 161.028 83.6211 160.385 83.4502 159.815C83.2907 159.234 83.0514 158.738 82.7324 158.328C82.4248 157.918 82.0374 157.599 81.5703 157.371C81.1146 157.143 80.5734 157.029 79.9468 157.029C79.3088 157.029 78.7619 157.177 78.3062 157.474C77.8504 157.758 77.4801 158.152 77.1953 158.653C76.9219 159.154 76.7168 159.747 76.5801 160.43C76.4548 161.102 76.3921 161.832 76.3921 162.618ZM100.472 172.342C99.0361 172.342 97.7487 172.114 96.6094 171.658C95.4701 171.191 94.5016 170.547 93.7041 169.727C92.918 168.907 92.3141 167.955 91.8926 166.873C91.471 165.779 91.2603 164.617 91.2603 163.387V162.703C91.2603 161.302 91.4596 160.02 91.8584 158.858C92.2572 157.696 92.8268 156.688 93.5674 155.833C94.3193 154.979 95.2308 154.323 96.3018 153.868C97.3727 153.401 98.5804 153.167 99.9248 153.167C101.235 153.167 102.397 153.383 103.411 153.816C104.425 154.249 105.274 154.865 105.958 155.662C106.653 156.46 107.177 157.417 107.53 158.533C107.883 159.638 108.06 160.869 108.06 162.225V164.275H93.3623V160.994H103.223V160.618C103.223 159.935 103.098 159.325 102.847 158.79C102.608 158.243 102.243 157.81 101.753 157.491C101.264 157.172 100.637 157.012 99.8735 157.012C99.2241 157.012 98.6659 157.155 98.1987 157.439C97.7316 157.724 97.3499 158.123 97.0537 158.636C96.7689 159.148 96.5524 159.752 96.4043 160.447C96.2676 161.131 96.1992 161.883 96.1992 162.703V163.387C96.1992 164.127 96.3018 164.811 96.5068 165.438C96.7233 166.064 97.0252 166.605 97.4126 167.061C97.8114 167.517 98.2899 167.87 98.8481 168.121C99.4178 168.371 100.062 168.497 100.779 168.497C101.668 168.497 102.494 168.326 103.257 167.984C104.032 167.631 104.699 167.101 105.257 166.395L107.649 168.992C107.262 169.55 106.732 170.086 106.06 170.599C105.399 171.111 104.602 171.533 103.667 171.863C102.733 172.182 101.668 172.342 100.472 172.342ZM115.784 157.542V172H110.862V153.509H115.494L115.784 157.542ZM121.355 153.389L121.27 157.952C121.031 157.918 120.74 157.889 120.398 157.867C120.068 157.833 119.766 157.815 119.493 157.815C118.798 157.815 118.194 157.907 117.681 158.089C117.18 158.26 116.758 158.516 116.417 158.858C116.086 159.2 115.835 159.616 115.665 160.105C115.505 160.595 115.414 161.154 115.391 161.78L114.4 161.473C114.4 160.276 114.52 159.177 114.759 158.174C114.998 157.16 115.346 156.277 115.801 155.525C116.268 154.773 116.838 154.192 117.51 153.782C118.182 153.372 118.951 153.167 119.817 153.167C120.091 153.167 120.37 153.19 120.655 153.235C120.94 153.27 121.173 153.321 121.355 153.389Z" fill="black"/>
</svg>
