<svg width="81" height="24" viewBox="0 0 81 24" fill="none" xmlns="http://www.w3.org/2000/svg">
<path d="M5.88 1.68C4.808 2.128 3.976 2.8 3.384 3.696C2.808 4.592 2.52 5.672 2.52 6.936C2.52 7.528 2.576 7.944 2.688 8.184C2.8 8.408 2.856 8.536 2.856 8.568C1.992 8.568 1.344 8.392 0.912 8.04C0.496 7.672 0.288 7.072 0.288 6.24C0.288 5.216 0.704 4.224 1.536 3.264C2.384 2.288 3.464 1.504 4.776 0.912C6.088 0.303999 7.4 -1.43051e-06 8.712 -1.43051e-06C8.936 -1.43051e-06 9.256 0.0159988 9.672 0.0479994L8.136 7.2H11.664L13.2 0.0479994H16.656L12.84 18H9.384L11.304 8.976H7.776L5.856 18H2.4L5.88 1.68ZM19.3929 18.144C18.2089 18.144 17.2889 17.84 16.6329 17.232C15.9769 16.608 15.6489 15.64 15.6489 14.328C15.6489 13.224 15.8649 12.008 16.2969 10.68C16.7289 9.352 17.4329 8.208 18.4089 7.248C19.3849 6.272 20.6249 5.784 22.1289 5.784C23.8889 5.784 24.7689 6.552 24.7689 8.088C24.7689 8.984 24.5129 9.808 24.0009 10.56C23.4889 11.312 22.8089 11.92 21.9609 12.384C21.1129 12.832 20.2089 13.088 19.2489 13.152C19.2169 13.632 19.2009 13.952 19.2009 14.112C19.2009 14.896 19.3369 15.432 19.6089 15.72C19.8809 15.992 20.3209 16.128 20.9289 16.128C21.7929 16.128 22.5289 15.928 23.1369 15.528C23.7609 15.128 24.4409 14.52 25.1769 13.704H25.9929C24.2169 16.664 22.0169 18.144 19.3929 18.144ZM19.4409 12C20.0329 11.968 20.5929 11.76 21.1209 11.376C21.6649 10.992 22.0969 10.504 22.4169 9.912C22.7529 9.32 22.9209 8.696 22.9209 8.04C22.9209 7.384 22.7209 7.056 22.3209 7.056C21.7449 7.056 21.1769 7.56 20.6169 8.568C20.0729 9.576 19.6809 10.72 19.4409 12ZM27.5479 18.144C26.7799 18.144 26.1559 17.904 25.6759 17.424C25.2119 16.944 24.9799 16.224 24.9799 15.264C24.9799 14.864 25.0439 14.344 25.1719 13.704L27.7399 1.68L31.2919 1.2L28.5319 14.16C28.4679 14.4 28.4359 14.656 28.4359 14.928C28.4359 15.248 28.5079 15.48 28.6519 15.624C28.8119 15.752 29.0679 15.816 29.4199 15.816C29.8839 15.816 30.3159 15.624 30.7159 15.24C31.1159 14.84 31.4039 14.328 31.5799 13.704H32.5879C31.9959 15.432 31.2359 16.608 30.3079 17.232C29.3799 17.84 28.4599 18.144 27.5479 18.144ZM33.8983 18.144C33.1303 18.144 32.5063 17.904 32.0263 17.424C31.5623 16.928 31.3303 16.192 31.3303 15.216C31.3303 14.816 31.3943 14.296 31.5223 13.656L34.0903 1.632L37.6423 1.152L34.8823 14.112C34.8183 14.352 34.7863 14.584 34.7863 14.808C34.7863 15.448 35.1143 15.768 35.7703 15.768C36.0583 15.768 36.3143 15.72 36.5383 15.624C36.4743 16.424 36.1863 17.048 35.6743 17.496C35.1783 17.928 34.5863 18.144 33.8983 18.144ZM42.2511 18.384C40.4431 18.384 39.1151 17.928 38.2671 17.016C37.4191 16.104 36.9951 14.592 36.9951 12.48C36.9951 10.8 37.2751 8.992 37.8351 7.056C38.4111 5.12 39.3231 3.464 40.5711 2.088C41.8351 0.695999 43.4351 -1.43051e-06 45.3711 -1.43051e-06C46.5711 -1.43051e-06 47.5391 0.263999 48.2751 0.792C49.0111 1.32 49.3791 2.128 49.3791 3.216C49.3791 3.904 49.2431 4.448 48.9711 4.848C48.6991 5.232 48.2751 5.424 47.6991 5.424C47.1231 5.424 46.6671 5.216 46.3311 4.8C46.6191 4.656 46.8751 4.368 47.0991 3.936C47.3231 3.504 47.4351 3.056 47.4351 2.592C47.4351 2.16 47.3151 1.808 47.0751 1.536C46.8511 1.264 46.4831 1.128 45.9711 1.128C45.1231 1.128 44.3151 1.712 43.5471 2.88C42.7791 4.032 42.1551 5.488 41.6751 7.248C41.2111 9.008 40.9791 10.704 40.9791 12.336C40.9791 13.552 41.1871 14.48 41.6031 15.12C42.0191 15.76 42.7711 16.08 43.8591 16.08C44.8031 16.08 45.6751 15.872 46.4751 15.456C47.2751 15.04 47.9631 14.448 48.5391 13.68L49.0911 13.92C48.6911 14.928 48.0991 15.768 47.3151 16.44C46.5311 17.112 45.6911 17.608 44.7951 17.928C43.8991 18.232 43.0511 18.384 42.2511 18.384ZM57.1328 18.144C56.1568 18.144 55.4368 17.888 54.9728 17.376C54.5248 16.848 54.3008 16.2 54.3008 15.432C54.3008 15.096 54.3408 14.72 54.4208 14.304C54.5008 13.872 54.5808 13.456 54.6608 13.056C54.7568 12.656 54.8207 12.4 54.8528 12.288C54.9808 11.728 55.1008 11.176 55.2128 10.632C55.3248 10.088 55.3808 9.648 55.3808 9.312C55.3808 8.496 55.0928 8.088 54.5168 8.088C54.1008 8.088 53.7328 8.296 53.4128 8.712C53.0928 9.112 52.8368 9.64 52.6448 10.296L51.0128 18H47.5567L51.0368 1.68L54.5888 1.2L53.2928 7.248C54.0928 6.352 55.0288 5.904 56.1008 5.904C56.9168 5.904 57.5648 6.128 58.0448 6.576C58.5248 7.024 58.7648 7.704 58.7648 8.616C58.7648 9.08 58.7088 9.6 58.5968 10.176C58.4848 10.736 58.3248 11.424 58.1168 12.24C57.9888 12.736 57.8688 13.224 57.7568 13.704C57.6608 14.168 57.6128 14.536 57.6128 14.808C57.6128 15.128 57.6848 15.376 57.8288 15.552C57.9728 15.728 58.2208 15.816 58.5728 15.816C59.0528 15.816 59.4368 15.648 59.7248 15.312C60.0128 14.96 60.3008 14.424 60.5887 13.704H61.5968C61.0048 15.464 60.3168 16.648 59.5328 17.256C58.7648 17.848 57.9648 18.144 57.1328 18.144ZM64.0179 18.144C62.8339 18.144 61.9139 17.84 61.2579 17.232C60.6019 16.608 60.2739 15.64 60.2739 14.328C60.2739 13.224 60.4899 12.008 60.9219 10.68C61.3539 9.352 62.0579 8.208 63.0339 7.248C64.0099 6.272 65.2499 5.784 66.7539 5.784C68.5139 5.784 69.3939 6.552 69.3939 8.088C69.3939 8.984 69.1379 9.808 68.6259 10.56C68.1139 11.312 67.4339 11.92 66.5859 12.384C65.7379 12.832 64.8339 13.088 63.8739 13.152C63.8419 13.632 63.8259 13.952 63.8259 14.112C63.8259 14.896 63.9619 15.432 64.2339 15.72C64.5059 15.992 64.9459 16.128 65.5539 16.128C66.4179 16.128 67.1539 15.928 67.7619 15.528C68.3859 15.128 69.0659 14.52 69.8019 13.704H70.6179C68.8419 16.664 66.6419 18.144 64.0179 18.144ZM64.0659 12C64.6579 11.968 65.2179 11.76 65.7459 11.376C66.2899 10.992 66.7219 10.504 67.0419 9.912C67.3779 9.32 67.5459 8.696 67.5459 8.04C67.5459 7.384 67.3459 7.056 66.9459 7.056C66.3699 7.056 65.8019 7.56 65.2419 8.568C64.6979 9.576 64.3059 10.72 64.0659 12ZM67.6369 24C66.8849 24 66.2289 23.752 65.6689 23.256C65.0929 22.776 64.8049 22.16 64.8049 21.408C64.8049 20.72 64.9809 20.152 65.3329 19.704C65.6849 19.256 66.1409 18.896 66.7009 18.624C67.2609 18.368 68.0049 18.096 68.9329 17.808L71.8369 4.104C72.1569 2.568 72.7169 1.504 73.5169 0.912C74.3329 0.32 75.2289 0.0239997 76.2049 0.0239997C76.9569 0.0239997 77.6129 0.271999 78.1729 0.767999C78.7489 1.248 79.0369 1.864 79.0369 2.616C79.0369 2.984 79.0129 3.312 78.9649 3.6H77.8369C77.8689 3.248 77.8849 3.032 77.8849 2.952C77.8849 2.696 77.7969 2.496 77.6209 2.352C77.4449 2.208 77.2289 2.136 76.9729 2.136C76.6369 2.136 76.3089 2.288 75.9889 2.592C75.6689 2.88 75.4369 3.384 75.2929 4.104L74.8849 6H76.6369L76.4689 6.96H74.6929L71.9329 19.92C71.6129 21.472 71.0609 22.536 70.2769 23.112C69.4929 23.704 68.6129 24 67.6369 24ZM67.0849 21.864C67.7249 21.864 68.1809 21.24 68.4529 19.992L68.7649 18.6C67.9169 18.888 67.2689 19.216 66.8209 19.584C66.3569 19.968 66.1249 20.464 66.1249 21.072C66.1249 21.264 66.2209 21.44 66.4129 21.6C66.6049 21.776 66.8289 21.864 67.0849 21.864Z" fill="black"/>
<path d="M78.8353 18.096C78.3073 18.096 77.8593 17.912 77.4913 17.544C77.1233 17.176 76.9393 16.728 76.9393 16.2C76.9393 15.672 77.1233 15.224 77.4913 14.856C77.8593 14.472 78.3073 14.28 78.8353 14.28C79.3633 14.28 79.8113 14.472 80.1793 14.856C80.5633 15.224 80.7553 15.672 80.7553 16.2C80.7553 16.728 80.5633 17.176 80.1793 17.544C79.8113 17.912 79.3633 18.096 78.8353 18.096Z" fill="#FF7426"/>
</svg>
