<svg width="526" height="126" viewBox="0 0 526 126" fill="none" xmlns="http://www.w3.org/2000/svg">
<g clip-path="url(#clip0_2_13)">
<path d="M36.9963 13.1647C-18.8095 76.6835 71.3268 135.816 118.512 88.0261C110.345 124.171 57.5643 139.749 21.1166 108.897C-12.3064 80.6156 -5.34955 27.6832 36.9963 13.1647Z" fill="#FF9822"/>
<path d="M75.7126 36.1524H76.7712V21.1801H77.5274V15.7357C77.5274 15.2819 77.8299 14.9795 78.2836 14.8282V9.83748C78.2836 9.535 78.5861 9.38377 78.7373 9.38377V5.30042C77.9811 5.14918 77.2249 4.69547 76.7712 3.9393C75.8638 2.12447 77.2249 -0.144056 79.191 0.00717938C77.6786 0.460885 77.0737 2.12447 77.9811 3.48559C78.8885 4.69547 80.7033 4.69547 81.6108 3.63683C81.1571 4.69547 80.2496 5.14918 79.3422 5.30042V9.38377C79.6447 9.38377 79.7959 9.535 79.7959 9.83748V14.8282C80.2496 14.9795 80.5521 15.2819 80.5521 15.7357V21.1801H81.3083V36.1524H82.3669V40.0845H83.1231C84.1818 40.0845 84.1818 42.2018 83.1231 42.2018H82.3669V50.9735H83.1231C84.1818 50.9735 84.1818 52.9395 83.1231 52.9395H82.3669V61.7112H83.1231C84.1818 61.7112 84.1818 63.8285 83.1231 63.8285H82.3669V76.6835H86.2991V73.9613H85.5429C84.4842 73.9613 84.4842 72.1464 85.5429 72.1464H86.2991V64.131H85.5429C84.4842 64.131 84.4842 62.3161 85.5429 62.3161H86.2991V58.6865H87.5089V45.0753H88.4163V40.0845C88.4163 39.6308 88.7188 39.3284 89.1725 39.3284V34.6401C89.1725 34.4888 89.475 34.3376 89.7775 34.3376V30.8592H90.3824V34.3376C90.5336 34.3376 90.8361 34.4888 90.8361 34.6401V39.3284C91.2898 39.3284 91.5923 39.6308 91.5923 40.0845V45.0753H92.4997V58.6865H93.7096V62.3161H94.617C95.6756 62.3161 95.6756 64.131 94.617 64.131H93.7096V72.1464H94.617C95.6756 72.1464 95.6756 73.9613 94.617 73.9613H93.7096V76.6835H97.4905V83.0354H105.96V89.5385H110.194V91.2021C97.7929 100.579 82.5182 104.057 66.9409 101.335C52.7248 98.7639 38.9624 90.7484 30.4932 78.8008H32.913V76.6835H33.8204V72.1464H32.913C31.8543 72.1464 31.8543 70.3316 32.913 70.3316H33.8204V62.3161H32.913C31.8543 62.3161 31.8543 60.3501 32.913 60.3501H33.8204V56.8717H35.0303V43.2605H35.7865V38.1185C35.7865 37.816 36.2402 37.5135 36.6939 37.5135V32.8252C36.6939 32.5228 36.9963 32.5228 37.1476 32.5228V29.0444H37.7525V32.5228C38.055 32.5228 38.3575 32.5228 38.3575 32.8252V37.5135C38.8112 37.5135 39.1136 37.816 39.1136 38.1185V43.2605H39.8698V56.8717H41.2309V60.3501H41.9871C43.0458 60.3501 43.0458 62.3161 41.9871 62.3161H41.2309V70.3316H41.9871C43.0458 70.3316 43.0458 72.1464 41.9871 72.1464H41.2309V76.6835H48.7927V67.1557C36.2402 62.6186 55.1446 47.9488 58.4718 44.6216C57.7156 44.4704 56.9594 44.0167 56.5057 43.2605C55.4471 41.2944 56.8082 38.8747 59.0767 39.0259C57.4131 39.4796 56.8082 41.2944 57.7156 42.6555C58.623 44.0167 60.5891 44.1679 61.6477 42.8068C61.194 43.8654 60.2866 44.4704 59.3792 44.6216C62.7063 47.9488 81.6108 62.6186 69.0582 67.1557V71.6927H75.7126V63.8285H74.9564C74.049 63.8285 74.049 61.7112 74.9564 61.7112H75.7126V52.9395H74.9564C74.049 52.9395 74.049 50.9735 74.9564 50.9735H75.7126V42.2018H74.9564C74.049 42.2018 74.049 40.0845 74.9564 40.0845H75.7126V36.1524Z" fill="#FF9822"/>
<path d="M166.73 72.1273H176.494L171.629 60.6497L166.73 72.1273ZM162.207 81.8914L162.138 81.8571C160.905 84.6666 159.637 87.4417 158.37 90.2512H146.481L171.525 34.1315L196.638 90.2512H184.715C183.482 87.4761 182.248 84.6666 181.015 81.8915H162.205L162.207 81.8914ZM200.854 35.1597H211.92V79.3229H233.984V90.3893H200.853L200.854 35.1597ZM258.652 90.3883L258.618 35.0913H276.57C281.881 35.0913 287.123 36.9414 290.926 40.7445C294.729 44.5475 296.271 48.1106 296.271 53.4212V55.1343C296.271 59.2457 295.106 62.2606 292.776 65.5497C290.446 68.8388 288.493 69.7982 284.862 71.1685L297.333 90.3891H283.834L269.718 68.8039V90.3891L258.652 90.3883ZM269.685 61.6776L277.599 61.7119C279.895 61.7119 281.059 61.1294 282.67 59.5192C284.28 57.9089 284.862 56.0587 284.862 53.7632C284.862 51.5018 284.28 49.9945 282.67 48.3499C281.059 46.7054 278.181 46.123 275.886 46.123H269.685L269.685 61.6776ZM321.249 72.1273H331.013L326.148 60.6497L321.249 72.1273ZM316.725 81.8914L316.588 82.3025L312.991 90.2512H311.072H310.627H303.432H301.068L326.112 34.1315L351.225 90.2512H348.861H341.666H341.186H339.268L335.704 82.2683L335.533 81.8914H316.723L316.725 81.8914ZM343.723 35.1597H356.263L365.788 52.6673L375.312 35.1597H387.886L371.304 65.6175V90.3883H360.272V65.6175L343.723 35.1597ZM390.627 35.1597H403.167L412.691 52.6673L422.216 35.1597H434.79L418.208 65.6175V90.3883H407.175V65.6175L390.627 35.1597ZM447.399 72.1273H457.163L452.298 60.6497L447.399 72.1273ZM442.876 81.8914L442.739 82.3025L439.141 90.2512H437.222H436.777H429.582H427.218L452.262 34.1315L477.375 90.2512H475.011H467.816H467.336H465.418L461.855 82.2683L461.683 81.8914H442.873L442.876 81.8914ZM481.522 34.1317L514.654 65.6859V35.1597H525.72V91.4162L492.589 59.827V90.3883H481.522V34.1317Z" fill="#303841"/>
</g>
<defs>
<clipPath id="clip0_2_13">
<rect width="525.72" height="125.384" fill="white"/>
</clipPath>
</defs>
</svg>
