<svg width="69" height="18" viewBox="0 0 69 18" fill="none" xmlns="http://www.w3.org/2000/svg">
<path d="M6.816 17.264C6.208 17.264 5.544 17.224 4.824 17.144C4.104 17.08 3.4 17 2.712 16.904C2.04 16.792 1.464 16.696 0.984 16.616L1.2 14C1.696 14.064 2.272 14.136 2.928 14.216C3.584 14.28 4.232 14.336 4.872 14.384C5.528 14.432 6.096 14.456 6.576 14.456C7.488 14.456 8.152 14.28 8.568 13.928C8.984 13.56 9.192 12.992 9.192 12.224C9.192 11.808 9.104 11.48 8.928 11.24C8.768 10.984 8.472 10.784 8.04 10.64C7.608 10.48 7.008 10.328 6.24 10.184C4.96 9.944 3.92 9.648 3.12 9.296C2.336 8.944 1.76 8.448 1.392 7.808C1.04 7.168 0.864 6.312 0.864 5.24C0.864 3.992 1.096 3.016 1.56 2.312C2.024 1.592 2.688 1.08 3.552 0.775999C4.416 0.471999 5.432 0.319999 6.6 0.319999C7.128 0.319999 7.728 0.351999 8.4 0.415999C9.088 0.463999 9.76 0.527999 10.416 0.607999C11.088 0.687999 11.656 0.775999 12.12 0.871999L11.976 3.512C11.496 3.448 10.936 3.392 10.296 3.344C9.672 3.28 9.048 3.224 8.424 3.176C7.816 3.128 7.296 3.104 6.864 3.104C5.952 3.104 5.28 3.248 4.848 3.536C4.416 3.824 4.2 4.288 4.2 4.928C4.2 5.408 4.296 5.776 4.488 6.032C4.68 6.288 5 6.496 5.448 6.656C5.912 6.816 6.544 6.984 7.344 7.16C8.288 7.368 9.088 7.592 9.744 7.832C10.416 8.072 10.952 8.36 11.352 8.696C11.768 9.032 12.072 9.464 12.264 9.992C12.456 10.52 12.552 11.184 12.552 11.984C12.552 13.264 12.32 14.296 11.856 15.08C11.408 15.848 10.752 16.408 9.888 16.76C9.04 17.096 8.016 17.264 6.816 17.264ZM65.3496 17V13.448H68.6856V17H65.3496Z" fill="#FF0000"/>
<path d="M17.7999 17.264C16.5519 17.264 15.6079 16.952 14.9679 16.328C14.3439 15.688 14.0319 14.728 14.0319 13.448C14.0319 12.552 14.1919 11.856 14.5119 11.36C14.8319 10.848 15.3039 10.48 15.9279 10.256C16.5679 10.016 17.3439 9.872 18.2559 9.824L21.1839 9.56V8.84C21.1839 8.264 21.0399 7.864 20.7519 7.64C20.4639 7.4 20.0399 7.28 19.4799 7.28C19.0319 7.28 18.5119 7.296 17.9199 7.328C17.3439 7.36 16.7679 7.4 16.1919 7.448C15.6319 7.496 15.1439 7.544 14.7279 7.592L14.6319 5.336C15.0479 5.24 15.5439 5.144 16.1199 5.048C16.7119 4.936 17.3279 4.848 17.9679 4.784C18.6079 4.72 19.1999 4.688 19.7439 4.688C20.7679 4.688 21.6239 4.816 22.3119 5.072C22.9999 5.328 23.5199 5.752 23.8719 6.344C24.2239 6.92 24.3999 7.704 24.3999 8.696V14.192C24.4319 14.416 24.5519 14.592 24.7599 14.72C24.9679 14.832 25.2079 14.912 25.4799 14.96L25.4079 17.168C25.0239 17.184 24.6479 17.192 24.2799 17.192C23.9119 17.192 23.5999 17.168 23.3439 17.12C22.9759 17.072 22.6559 16.976 22.3839 16.832C22.1279 16.688 21.9199 16.536 21.7599 16.376C21.5039 16.488 21.1599 16.616 20.7279 16.76C20.2959 16.904 19.8239 17.024 19.3119 17.12C18.8159 17.216 18.3119 17.264 17.7999 17.264ZM18.5679 14.888C18.8719 14.888 19.1919 14.856 19.5279 14.792C19.8639 14.728 20.1759 14.656 20.4639 14.576C20.7679 14.48 21.0079 14.392 21.1839 14.312V11.552L18.7359 11.768C18.2079 11.816 17.8239 11.976 17.5839 12.248C17.3599 12.504 17.2479 12.872 17.2479 13.352C17.2479 13.832 17.3519 14.208 17.5599 14.48C17.7839 14.752 18.1199 14.888 18.5679 14.888ZM32.0904 17.264C30.7624 17.264 29.7064 17.04 28.9224 16.592C28.1544 16.144 27.6024 15.464 27.2664 14.552C26.9304 13.64 26.7624 12.496 26.7624 11.12C26.7624 9.632 26.9704 8.416 27.3864 7.472C27.8184 6.528 28.4424 5.832 29.2584 5.384C30.0744 4.92 31.0824 4.688 32.2824 4.688C34.0584 4.688 35.3944 5.136 36.2904 6.032C37.2024 6.928 37.6584 8.344 37.6584 10.28L37.5144 12.056H29.9784C29.9944 12.952 30.1784 13.624 30.5304 14.072C30.8824 14.52 31.4904 14.744 32.3544 14.744C32.8504 14.744 33.3944 14.736 33.9864 14.72C34.5784 14.688 35.1624 14.656 35.7384 14.624C36.3304 14.592 36.8344 14.56 37.2504 14.528L37.3224 16.76C36.9224 16.824 36.4184 16.896 35.8104 16.976C35.2024 17.056 34.5704 17.12 33.9144 17.168C33.2744 17.232 32.6664 17.264 32.0904 17.264ZM29.9784 10.016H34.4664C34.4664 8.928 34.2904 8.168 33.9384 7.736C33.6024 7.304 33.0504 7.088 32.2824 7.088C31.5304 7.088 30.9544 7.312 30.5544 7.76C30.1704 8.208 29.9784 8.96 29.9784 10.016ZM44.6529 17.264C43.3249 17.264 42.2689 17.04 41.4849 16.592C40.7169 16.144 40.1649 15.464 39.8289 14.552C39.4929 13.64 39.3249 12.496 39.3249 11.12C39.3249 9.632 39.5329 8.416 39.9489 7.472C40.3809 6.528 41.0049 5.832 41.8209 5.384C42.6369 4.92 43.6449 4.688 44.8449 4.688C46.6209 4.688 47.9569 5.136 48.8529 6.032C49.7649 6.928 50.2209 8.344 50.2209 10.28L50.0769 12.056H42.5409C42.5569 12.952 42.7409 13.624 43.0929 14.072C43.4449 14.52 44.0529 14.744 44.9169 14.744C45.4129 14.744 45.9569 14.736 46.5489 14.72C47.1409 14.688 47.7249 14.656 48.3009 14.624C48.8929 14.592 49.3969 14.56 49.8129 14.528L49.8849 16.76C49.4849 16.824 48.9809 16.896 48.3729 16.976C47.7649 17.056 47.1329 17.12 46.4769 17.168C45.8369 17.232 45.2289 17.264 44.6529 17.264ZM42.5409 10.016H47.0289C47.0289 8.928 46.8529 8.168 46.5009 7.736C46.1649 7.304 45.6129 7.088 44.8449 7.088C44.0929 7.088 43.5169 7.312 43.1169 7.76C42.7329 8.208 42.5409 8.96 42.5409 10.016ZM56.3994 17.264C55.8234 17.264 55.2954 17.192 54.8154 17.048C54.3354 16.92 53.9114 16.712 53.5434 16.424C53.1914 16.12 52.8874 15.728 52.6314 15.248C52.3914 14.768 52.2074 14.184 52.0794 13.496C51.9514 12.792 51.8874 11.976 51.8874 11.048C51.8874 9.672 52.0554 8.512 52.3914 7.568C52.7434 6.624 53.2954 5.912 54.0474 5.432C54.7994 4.936 55.7994 4.688 57.0474 4.688C57.4154 4.688 57.8474 4.72 58.3434 4.784C58.8554 4.832 59.2634 4.88 59.5674 4.928V0.0319996H62.7834V17H59.6154L59.5914 16.304C59.3674 16.432 59.0714 16.576 58.7034 16.736C58.3514 16.88 57.9754 17 57.5754 17.096C57.1754 17.208 56.7834 17.264 56.3994 17.264ZM57.2154 14.576C57.5034 14.576 57.7914 14.544 58.0794 14.48C58.3834 14.416 58.6634 14.344 58.9194 14.264C59.1914 14.168 59.4074 14.08 59.5674 14V7.544C59.4234 7.512 59.2314 7.488 58.9914 7.472C58.7514 7.44 58.5034 7.416 58.2474 7.4C57.9914 7.368 57.7594 7.352 57.5514 7.352C56.9274 7.352 56.4394 7.496 56.0874 7.784C55.7514 8.072 55.5114 8.496 55.3674 9.056C55.2234 9.6 55.1514 10.264 55.1514 11.048C55.1514 11.736 55.1994 12.312 55.2954 12.776C55.3914 13.224 55.5274 13.584 55.7034 13.856C55.8954 14.112 56.1194 14.296 56.3754 14.408C56.6314 14.52 56.9114 14.576 57.2154 14.576Z" fill="black"/>
</svg>
